<svg xmlns="http://www.w3.org/2000/svg" version="1.1" xmlns:xlink="http://www.w3.org/1999/xlink" width="1000" height="1000"><g clip-path="url(#SvgjsClipPath1430)"><rect width="1000" height="1000" fill="#061715"></rect><g transform="matrix(15.686274509803921,0,0,15.686274509803921,100,390.19607843137254)"><svg xmlns="http://www.w3.org/2000/svg" version="1.1" xmlns:xlink="http://www.w3.org/1999/xlink" width="51" height="14"><svg width="51" height="14" viewBox="0 0 51 14" fill="none" xmlns="http://www.w3.org/2000/svg">
<path d="M44.3809 3.63168e-06C45.6459 3.53976e-06 46.7072 -0.00222928 47.548 0.104195C48.421 0.214696 49.2221 0.459326 49.8671 1.06661C50.5121 1.6739 50.772 2.42776 50.8896 3.24962C51.0025 4.04122 51 5.04048 51 6.23153V7.76846C51 8.95949 51.0025 9.95864 50.8896 10.7502C50.772 11.5721 50.5121 12.3261 49.8671 12.9333C49.2221 13.5406 48.421 13.7853 47.548 13.8958C46.7072 14.0022 45.6459 14 44.3809 14H38.0603C36.7953 14 35.7338 14.0022 34.893 13.8958C34.02 13.7853 33.2191 13.5407 32.5741 12.9333C31.929 12.3261 31.6691 11.5721 31.5518 10.7502C31.467 10.1565 31.447 9.4461 31.4424 8.62553L31.4411 7.76846V6.23153C31.4411 5.04048 31.4387 4.04122 31.5518 3.24962C31.6691 2.42777 31.929 1.67389 32.5741 1.06661C33.2191 0.459316 34.0199 0.214698 34.893 0.104195C35.7338 -0.00223333 36.7953 3.72357e-06 38.0603 3.63168e-06H44.3809ZM22.9318 13.648H19.0756L13.0601 9.46109L7.14735 13.648H3.3426L13.0601 6.87157L22.9318 13.648ZM28.7464 13.648H26.4897V2.87207L22.6559 5.45928H18.9884L26.4887 0.272195L26.4897 0.273092V0.272195H28.7464V13.648ZM38.0603 2.10413C36.7319 2.10413 35.8481 2.10628 35.1908 2.18947C34.5657 2.2686 34.3151 2.40326 34.1545 2.55446C33.9939 2.70566 33.8508 2.94152 33.7668 3.53005C33.6784 4.14888 33.6762 4.98099 33.6762 6.23153V7.76846L33.6778 8.631C33.6827 9.42159 33.7005 10.0058 33.7668 10.4699C33.8508 11.0585 33.9939 11.2943 34.1545 11.4455C34.3151 11.5967 34.5658 11.7312 35.1908 11.8104C35.8481 11.8935 36.7319 11.8958 38.0603 11.8958H44.3809C45.7092 11.8958 46.5932 11.8935 47.2505 11.8104C47.8756 11.7312 48.126 11.5967 48.2868 11.4455C48.4471 11.2943 48.5901 11.0585 48.6744 10.4699C48.7627 9.85111 48.7649 9.01897 48.7649 7.76846V6.23153C48.7649 4.98099 48.7627 4.14888 48.6744 3.53005C48.5901 2.94152 48.4471 2.70566 48.2868 2.55446C48.126 2.40327 47.8756 2.2686 47.2505 2.18947C46.5932 2.10628 45.7092 2.10413 44.3809 2.10413H38.0603ZM9.71751 4.4591L15.733 0.272195H19.5891L9.71751 7.04862L0 0.272195H3.80477L9.71751 4.4591Z" fill="white"></path>
</svg></svg></g></g><defs><clipPath id="SvgjsClipPath1430"><rect width="1000" height="1000" x="0" y="0" rx="200" ry="200"></rect></clipPath></defs></svg>