<svg viewBox="0 0 1354 467" fill="none" xmlns="http://www.w3.org/2000/svg">
<g filter="url(#filter0_di_1149_26)">
<mask id="path-1-inside-1_1149_26" fill="white">
<path d="M1133.84 60.0001C1164.45 60.0001 1190.13 59.9447 1210.47 62.5826C1231.6 65.3214 1250.98 71.3847 1266.59 86.4367C1282.19 101.489 1288.48 120.174 1291.33 140.544C1294.06 160.164 1294 184.932 1294 214.453V252.547C1294 282.067 1294.06 306.832 1291.33 326.452C1288.48 346.822 1282.19 365.511 1266.59 380.562C1250.98 395.613 1231.6 401.679 1210.47 404.417C1190.13 407.054 1164.45 407 1133.84 407H980.911C950.302 407 924.619 407.054 904.273 404.417C883.151 401.679 863.773 395.616 848.165 380.562C832.556 365.511 826.268 346.822 823.429 326.452C821.379 311.736 820.895 294.128 820.783 273.79L820.751 252.547V214.453C820.751 184.932 820.694 160.164 823.429 140.544C826.268 120.174 832.556 101.489 848.165 86.4367C863.773 71.3845 883.148 65.3214 904.273 62.5826C924.619 59.9446 950.302 60.0001 980.911 60.0001H1133.84ZM614.859 398.276H521.555L376.003 294.5L232.938 398.276H140.878L376.003 230.317L614.859 398.276ZM755.551 398.276H700.946V131.186L608.183 195.312H519.446L700.922 66.7466L700.946 66.7688V66.7466H755.551V398.276ZM980.911 112.152C948.769 112.152 927.385 112.206 911.479 114.268C896.353 116.229 890.29 119.567 886.405 123.314C882.52 127.062 879.057 132.908 877.024 147.495C874.886 162.833 874.831 183.457 874.831 214.453V252.547L874.872 273.925C874.99 293.521 875.42 308 877.024 319.505C879.057 334.092 882.52 339.938 886.405 343.685C890.29 347.433 896.356 350.767 911.479 352.728C927.385 354.789 948.769 354.847 980.911 354.847H1133.84C1165.98 354.847 1187.37 354.789 1203.28 352.728C1218.4 350.767 1224.46 347.433 1228.35 343.685C1232.23 339.938 1235.69 334.092 1237.73 319.505C1239.87 304.167 1239.92 283.542 1239.92 252.547V214.453C1239.92 183.457 1239.87 162.833 1237.73 147.495C1235.69 132.908 1232.23 127.062 1228.35 123.314C1224.46 119.567 1218.4 116.229 1203.28 114.268C1187.37 112.206 1165.98 112.152 1133.84 112.152H980.911ZM295.126 170.522L440.677 66.7466H533.98L295.126 234.705L60 66.7466H152.06L295.126 170.522Z"/>
</mask>
<path d="M1133.84 60.0001C1164.45 60.0001 1190.13 59.9447 1210.47 62.5826C1231.6 65.3214 1250.98 71.3847 1266.59 86.4367C1282.19 101.489 1288.48 120.174 1291.33 140.544C1294.06 160.164 1294 184.932 1294 214.453V252.547C1294 282.067 1294.06 306.832 1291.33 326.452C1288.48 346.822 1282.19 365.511 1266.59 380.562C1250.98 395.613 1231.6 401.679 1210.47 404.417C1190.13 407.054 1164.45 407 1133.84 407H980.911C950.302 407 924.619 407.054 904.273 404.417C883.151 401.679 863.773 395.616 848.165 380.562C832.556 365.511 826.268 346.822 823.429 326.452C821.379 311.736 820.895 294.128 820.783 273.79L820.751 252.547V214.453C820.751 184.932 820.694 160.164 823.429 140.544C826.268 120.174 832.556 101.489 848.165 86.4367C863.773 71.3845 883.148 65.3214 904.273 62.5826C924.619 59.9446 950.302 60.0001 980.911 60.0001H1133.84ZM614.859 398.276H521.555L376.003 294.5L232.938 398.276H140.878L376.003 230.317L614.859 398.276ZM755.551 398.276H700.946V131.186L608.183 195.312H519.446L700.922 66.7466L700.946 66.7688V66.7466H755.551V398.276ZM980.911 112.152C948.769 112.152 927.385 112.206 911.479 114.268C896.353 116.229 890.29 119.567 886.405 123.314C882.52 127.062 879.057 132.908 877.024 147.495C874.886 162.833 874.831 183.457 874.831 214.453V252.547L874.872 273.925C874.99 293.521 875.42 308 877.024 319.505C879.057 334.092 882.52 339.938 886.405 343.685C890.29 347.433 896.356 350.767 911.479 352.728C927.385 354.789 948.769 354.847 980.911 354.847H1133.84C1165.98 354.847 1187.37 354.789 1203.28 352.728C1218.4 350.767 1224.46 347.433 1228.35 343.685C1232.23 339.938 1235.69 334.092 1237.73 319.505C1239.87 304.167 1239.92 283.542 1239.92 252.547V214.453C1239.92 183.457 1239.87 162.833 1237.73 147.495C1235.69 132.908 1232.23 127.062 1228.35 123.314C1224.46 119.567 1218.4 116.229 1203.28 114.268C1187.37 112.206 1165.98 112.152 1133.84 112.152H980.911ZM295.126 170.522L440.677 66.7466H533.98L295.126 234.705L60 66.7466H152.06L295.126 170.522Z" fill="#008B76"/>
<path d="M1133.84 60.0001C1164.45 60.0001 1190.13 59.9447 1210.47 62.5826C1231.6 65.3214 1250.98 71.3847 1266.59 86.4367C1282.19 101.489 1288.48 120.174 1291.33 140.544C1294.06 160.164 1294 184.932 1294 214.453V252.547C1294 282.067 1294.06 306.832 1291.33 326.452C1288.48 346.822 1282.19 365.511 1266.59 380.562C1250.98 395.613 1231.6 401.679 1210.47 404.417C1190.13 407.054 1164.45 407 1133.84 407H980.911C950.302 407 924.619 407.054 904.273 404.417C883.151 401.679 863.773 395.616 848.165 380.562C832.556 365.511 826.268 346.822 823.429 326.452C821.379 311.736 820.895 294.128 820.783 273.79L820.751 252.547V214.453C820.751 184.932 820.694 160.164 823.429 140.544C826.268 120.174 832.556 101.489 848.165 86.4367C863.773 71.3845 883.148 65.3214 904.273 62.5826C924.619 59.9446 950.302 60.0001 980.911 60.0001H1133.84ZM614.859 398.276H521.555L376.003 294.5L232.938 398.276H140.878L376.003 230.317L614.859 398.276ZM755.551 398.276H700.946V131.186L608.183 195.312H519.446L700.922 66.7466L700.946 66.7688V66.7466H755.551V398.276ZM980.911 112.152C948.769 112.152 927.385 112.206 911.479 114.268C896.353 116.229 890.29 119.567 886.405 123.314C882.52 127.062 879.057 132.908 877.024 147.495C874.886 162.833 874.831 183.457 874.831 214.453V252.547L874.872 273.925C874.99 293.521 875.42 308 877.024 319.505C879.057 334.092 882.52 339.938 886.405 343.685C890.29 347.433 896.356 350.767 911.479 352.728C927.385 354.789 948.769 354.847 980.911 354.847H1133.84C1165.98 354.847 1187.37 354.789 1203.28 352.728C1218.4 350.767 1224.46 347.433 1228.35 343.685C1232.23 339.938 1235.69 334.092 1237.73 319.505C1239.87 304.167 1239.92 283.542 1239.92 252.547V214.453C1239.92 183.457 1239.87 162.833 1237.73 147.495C1235.69 132.908 1232.23 127.062 1228.35 123.314C1224.46 119.567 1218.4 116.229 1203.28 114.268C1187.37 112.206 1165.98 112.152 1133.84 112.152H980.911ZM295.126 170.522L440.677 66.7466H533.98L295.126 234.705L60 66.7466H152.06L295.126 170.522Z" stroke="black" stroke-width="2" mask="url(#path-1-inside-1_1149_26)"/>
</g>
<defs>
<filter id="filter0_di_1149_26" x="0" y="0" filterUnits="userSpaceOnUse" color-interpolation-filters="sRGB">
<feFlood flood-opacity="0" result="BackgroundImageFix"/>
<feColorMatrix in="SourceAlpha" type="matrix" values="0 0 0 0 0 0 0 0 0 0 0 0 0 0 0 0 0 0 127 0" result="hardAlpha"/>
<feOffset/>
<feGaussianBlur stdDeviation="30"/>
<feComposite in2="hardAlpha" operator="out"/>
<feColorMatrix type="matrix" values="0 0 0 0 1 0 0 0 0 1 0 0 0 0 1 0 0 0 0.25 0"/>
<feBlend mode="normal" in2="BackgroundImageFix" result="effect1_dropShadow_1149_26"/>
<feBlend mode="normal" in="SourceGraphic" in2="effect1_dropShadow_1149_26" result="shape"/>
<feColorMatrix in="SourceAlpha" type="matrix" values="0 0 0 0 0 0 0 0 0 0 0 0 0 0 0 0 0 0 127 0" result="hardAlpha"/>
<feOffset/>
<feGaussianBlur stdDeviation="20"/>
<feComposite in2="hardAlpha" operator="arithmetic" k2="-1" k3="1"/>
<feColorMatrix type="matrix" values="0 0 0 0 0.0181227 0 0 0 0 1 0 0 0 0 0.857699 0 0 0 1 0"/>
<feBlend mode="normal" in2="shape" result="effect2_innerShadow_1149_26"/>
</filter>
</defs>
</svg>
