<svg width="159" height="45" viewBox="0 0 159 45" fill="none" xmlns="http://www.w3.org/2000/svg">
<path d="M138.364 1.16003e-05C142.308 1.13067e-05 145.616 -0.00712077 148.238 0.332821C150.96 0.685782 153.457 1.46718 155.468 3.40696C157.479 5.34677 158.289 7.75475 158.656 10.3799C159.008 12.9084 159 16.1003 159 19.9047V24.814C159 28.6184 159.008 31.8099 158.656 34.3383C158.289 36.9634 157.479 39.3719 155.468 41.3116C153.457 43.2513 150.96 44.033 148.238 44.3859C145.616 44.7257 142.308 44.7187 138.364 44.7187H118.659C114.715 44.7187 111.406 44.7257 108.784 44.3859C106.062 44.033 103.566 43.2516 101.555 41.3116C99.5433 39.3719 98.733 36.9634 98.3673 34.3383C98.1031 32.4418 98.0407 30.1727 98.0264 27.5517L98.0222 24.814V19.9047C98.0222 16.1003 98.0149 12.9084 98.3673 10.3799C98.733 7.75477 99.5433 5.34674 101.555 3.40696C103.566 1.46715 106.062 0.685788 108.784 0.332821C111.406 -0.00713369 114.715 1.18938e-05 118.659 1.16003e-05H138.364ZM71.4931 43.5944H59.471L40.7167 30.2206L22.2829 43.5944H10.421L40.7167 21.9492L71.4931 43.5944ZM89.6213 43.5944H82.5854V9.17395L70.633 17.438H59.1992L82.5824 0.869446L82.5854 0.872311V0.869446H89.6213V43.5944ZM118.659 6.721C114.517 6.721 111.762 6.72787 109.712 6.99361C107.764 7.24637 106.982 7.67649 106.482 8.15945C105.981 8.64241 105.535 9.3958 105.273 11.2757C104.997 13.2523 104.99 15.9103 104.99 19.9047V24.814L104.996 27.5691C105.011 30.0944 105.066 31.9604 105.273 33.4431C105.535 35.3229 105.981 36.0764 106.482 36.5592C106.982 37.0422 107.764 37.4719 109.712 37.7246C111.762 37.9902 114.517 37.9976 118.659 37.9976H138.364C142.505 37.9976 145.261 37.9902 147.31 37.7246C149.259 37.4719 150.04 37.0422 150.541 36.5592C151.041 36.0764 151.487 35.3229 151.75 33.4431C152.025 31.4664 152.032 28.8084 152.032 24.814V19.9047C152.032 15.9103 152.025 13.2523 151.75 11.2757C151.487 9.3958 151.041 8.64241 150.541 8.15945C150.04 7.67652 149.259 7.24634 147.31 6.99361C145.261 6.72787 142.505 6.721 138.364 6.721H118.659ZM30.2958 14.2432L49.05 0.869446H61.072L30.2958 22.5147L0 0.869446H11.8619L30.2958 14.2432Z" fill="white"/>
</svg>
